<?xml version="1.0" encoding="UTF-8" standalone="no"?>
<!DOCTYPE svg PUBLIC "-//W3C//DTD SVG 1.1//EN" "http://www.w3.org/Graphics/SVG/1.1/DTD/svg11.dtd">
<svg version="1.1" xmlns="http://www.w3.org/2000/svg" xmlns:xlink="http://www.w3.org/1999/xlink" preserveAspectRatio="xMidYMid meet" viewBox="0 0 640 640" width="640" height="640"><defs><path d="M279.04 151.14L293.13 155.08L274.03 209.15L274.51 209.29L275.64 209.7L276.27 209.95L301.83 159.02L314.74 166.9L282.71 213.49L282.97 213.68L283.92 214.4L284.45 214.83L322.16 173.89L331.49 182.66L288.63 219.03L288.94 219.42L289.66 220.36L290.34 221.33L290.37 221.37L338.36 191.46L344.36 202.36L293.24 226.69L293.64 227.69L294.04 228.83L294.41 229.99L294.42 230.07L349.07 213.16L352.24 227.16L295.46 235.47L295.52 236.05L295.59 237.31L295.62 238.58L295.59 239.85L295.57 240.22L353.74 233.89L353.74 251.6L294.54 246.66L294.41 247.17L294.04 248.33L293.64 249.47L293.19 250.59L292.7 251.69L292.17 252.76L291.6 253.81L290.99 254.83L290.34 255.83L289.66 256.8L288.94 257.74L288.19 258.66L287.39 259.54L286.58 260.4L285.72 261.22L284.84 262.01L283.92 262.76L282.97 263.48L282.01 264.17L281.01 264.81L279.98 265.42L278.93 265.99L277.86 266.52L276.76 267.01L275.64 267.46L274.51 267.87L273.34 268.22L272.17 268.54L270.98 268.81L269.76 269.04L268.53 269.21L267.29 269.34L266.02 269.42L264.76 269.44L263.48 269.42L262.23 269.34L260.98 269.21L259.75 269.04L258.54 268.81L257.34 268.54L256.16 268.22L255.01 267.87L253.86 267.46L252.74 267.01L251.65 266.52L250.58 265.99L249.53 265.42L248.5 264.81L247.51 264.17L246.53 263.48L245.59 262.76L244.68 262.01L243.79 261.22L242.94 260.4L242.11 259.54L241.33 258.66L240.69 257.9L184.6 294.31L178.84 283.33L238.47 254.75L237.91 253.81L237.34 252.76L236.81 251.69L236.65 251.32L174.9 273.29L170.96 261.47L235.24 247.59L235.11 247.17L234.9 246.41L169.77 249.65L169.22 237.83L229.18 238.8L170.96 224.84L173.61 213.58L231.96 230.92L178.84 201.5L184.33 192.16L237.38 224.32L237.42 224.26L191.46 182.66L200.25 172.94L240.52 219.47L240.57 219.42L241.33 218.5L242.11 217.62L242.54 217.18L209.31 166.35L220.85 159.02L247.26 213.16L247.51 212.99L248.5 212.35L249.53 211.74L250.58 211.17L251.56 210.68L230.08 155.08L243.34 151.14L256.74 203.95L255.14 150L267.78 150L266.36 207.77L266.51 207.77L279.04 151.14Z" id="ehIsMij3u"></path><path d="M279.04 151.14L293.13 155.08L274.03 209.15L274.51 209.29L275.64 209.7L276.27 209.95L301.83 159.02L314.74 166.9L282.71 213.49L282.97 213.68L283.92 214.4L284.45 214.83L322.16 173.89L331.49 182.66L288.63 219.03L288.94 219.42L289.66 220.36L290.34 221.33L290.37 221.37L338.36 191.46L344.36 202.36L293.24 226.69L293.64 227.69L294.04 228.83L294.41 229.99L294.42 230.07L349.07 213.16L352.24 227.16L295.46 235.47L295.52 236.05L295.59 237.31L295.62 238.58L295.59 239.85L295.57 240.22L353.74 233.89L353.74 251.6L294.54 246.66L294.41 247.17L294.04 248.33L293.64 249.47L293.19 250.59L292.7 251.69L292.17 252.76L291.6 253.81L290.99 254.83L290.34 255.83L289.66 256.8L288.94 257.74L288.19 258.66L287.39 259.54L286.58 260.4L285.72 261.22L284.84 262.01L283.92 262.76L282.97 263.48L282.01 264.17L281.01 264.81L279.98 265.42L278.93 265.99L277.86 266.52L276.76 267.01L275.64 267.46L274.51 267.87L273.34 268.22L272.17 268.54L270.98 268.81L269.76 269.04L268.53 269.21L267.29 269.34L266.02 269.42L264.76 269.44L263.48 269.42L262.23 269.34L260.98 269.21L259.75 269.04L258.54 268.81L257.34 268.54L256.16 268.22L255.01 267.87L253.86 267.46L252.74 267.01L251.65 266.52L250.58 265.99L249.53 265.42L248.5 264.81L247.51 264.17L246.53 263.48L245.59 262.76L244.68 262.01L243.79 261.22L242.94 260.4L242.11 259.54L241.33 258.66L240.69 257.9L184.6 294.31L178.84 283.33L238.47 254.75L237.91 253.81L237.34 252.76L236.81 251.69L236.65 251.32L174.9 273.29L170.96 261.47L235.24 247.59L235.11 247.17L234.9 246.41L169.77 249.65L169.22 237.83L229.18 238.8L170.96 224.84L173.61 213.58L231.96 230.92L178.84 201.5L184.33 192.16L237.38 224.32L237.42 224.26L191.46 182.66L200.25 172.94L240.52 219.47L240.57 219.42L241.33 218.5L242.11 217.62L242.54 217.18L209.31 166.35L220.85 159.02L247.26 213.16L247.51 212.99L248.5 212.35L249.53 211.74L250.58 211.17L251.56 210.68L230.08 155.08L243.34 151.14L256.74 203.95L255.14 150L267.78 150L266.36 207.77L266.51 207.77L279.04 151.14Z" id="bk2LCwXHr"></path><path d="M216.35 391.41L161.18 391.07L203.08 288.43L244.98 185.79L271.77 255.65L216.35 391.41Z" id="b1JNBYkgfw"></path><path d="M425.1 209.81L501.17 391.41L508.96 391.41L425.1 186.12L341.24 390.62L352.34 391.41L425.1 209.81Z" id="a1GxzLVsX1"></path><path d="M425.1 209.81L501.17 391.41L508.96 391.41L425.1 186.12L341.24 390.62L352.34 391.41L425.1 209.81Z" id="cAhKkmdIV"></path><path d="M271.3 392.89L216.35 391.41L258.24 288.77L300.14 186.12L327.19 253.62L271.3 392.89Z" id="c5jKFvxM5"></path><path d="M334.06 391.41L271.3 391.41L313.19 287.87L355.09 184.32L387.28 263.85L334.06 391.41Z" id="egs4QtLC"></path><path d="M145.19 408.05L145.64 408.11L146.08 408.19L146.51 408.28L146.94 408.39L147.37 408.52L147.78 408.66L148.19 408.82L148.59 408.99L148.98 409.18L149.36 409.39L149.74 409.6L150.1 409.84L150.46 410.08L150.8 410.34L151.13 410.61L151.46 410.89L151.77 411.19L152.07 411.5L152.36 411.82L152.63 412.15L152.89 412.49L153.14 412.84L153.38 413.2L153.61 413.57L153.81 413.95L154.01 414.34L154.19 414.74L154.35 415.15L154.5 415.56L154.63 415.98L154.74 416.41L154.84 416.84L154.93 417.29L154.99 417.73L155.04 418.19L155.06 418.64L155.07 419.1L155.07 428.8L155.07 429.22L155.04 429.63L155 430.04L154.94 430.44L154.88 430.83L154.79 431.22L154.69 431.6L154.57 431.99L154.44 432.36L154.3 432.73L154.14 433.09L153.98 433.44L153.79 433.79L153.59 434.12L153.39 434.45L153.17 434.77L152.94 435.08L152.7 435.39L152.44 435.68L152.18 435.96L151.91 436.24L151.62 436.5L151.32 436.75L151.03 436.99L150.71 437.22L150.39 437.44L150.06 437.65L149.72 437.84L149.38 438.02L149.02 438.19L148.66 438.35L148.29 438.49L147.91 438.62L147.53 438.73L147.14 438.83L146.75 438.92L146.35 438.99L145.95 439.04L145.54 439.08L145.13 439.1L129.69 439.63L129.46 456.61L120.43 456.61L120 408.28L143.82 407.99L144.28 407.99L144.74 408.01L145.19 408.05ZM143.69 430.75L144.07 430.74L144.45 430.69L144.82 430.6L145.18 430.5L145.52 430.36L145.85 430.2L146.16 430.01L146.46 429.8L146.74 429.57L146.99 429.31L147.23 429.04L147.45 428.74L147.64 428.43L147.81 428.1L147.94 427.76L148.06 427.4L148.14 427.04L148.19 426.66L148.21 426.27L148.25 422.2L148.23 421.71L148.18 421.22L148.07 420.75L147.94 420.3L147.76 419.87L147.55 419.45L147.31 419.05L147.04 418.68L146.73 418.33L146.41 418L146.05 417.71L145.67 417.44L145.27 417.21L144.84 417.01L144.41 416.84L143.95 416.72L143.48 416.62L142.99 416.57L142.49 416.57L129.46 416.96L129.46 430.75L143.69 430.75Z" id="a2Rot0ciVk"></path><path d="M145.19 408.05L145.64 408.11L146.08 408.19L146.51 408.28L146.94 408.39L147.37 408.52L147.78 408.66L148.19 408.82L148.59 408.99L148.98 409.18L149.36 409.39L149.74 409.6L150.1 409.84L150.46 410.08L150.8 410.34L151.13 410.61L151.46 410.89L151.77 411.19L152.07 411.5L152.36 411.82L152.63 412.15L152.89 412.49L153.14 412.84L153.38 413.2L153.61 413.57L153.81 413.95L154.01 414.34L154.19 414.74L154.35 415.15L154.5 415.56L154.63 415.98L154.74 416.41L154.84 416.84L154.93 417.29L154.99 417.73L155.04 418.19L155.06 418.64L155.07 419.1L155.07 428.8L155.07 429.22L155.04 429.63L155 430.04L154.94 430.44L154.88 430.83L154.79 431.22L154.69 431.6L154.57 431.99L154.44 432.36L154.3 432.73L154.14 433.09L153.98 433.44L153.79 433.79L153.59 434.12L153.39 434.45L153.17 434.77L152.94 435.08L152.7 435.39L152.44 435.68L152.18 435.96L151.91 436.24L151.62 436.5L151.32 436.75L151.03 436.99L150.71 437.22L150.39 437.44L150.06 437.65L149.72 437.84L149.38 438.02L149.02 438.19L148.66 438.35L148.29 438.49L147.91 438.62L147.53 438.73L147.14 438.83L146.75 438.92L146.35 438.99L145.95 439.04L145.54 439.08L145.13 439.1L129.69 439.63L129.46 456.61L120.43 456.61L120 408.28L143.82 407.99L144.28 407.99L144.74 408.01L145.19 408.05ZM143.69 430.75L144.07 430.74L144.45 430.69L144.82 430.6L145.18 430.5L145.52 430.36L145.85 430.2L146.16 430.01L146.46 429.8L146.74 429.57L146.99 429.31L147.23 429.04L147.45 428.74L147.64 428.43L147.81 428.1L147.94 427.76L148.06 427.4L148.14 427.04L148.19 426.66L148.21 426.27L148.25 422.2L148.23 421.71L148.18 421.22L148.07 420.75L147.94 420.3L147.76 419.87L147.55 419.45L147.31 419.05L147.04 418.68L146.73 418.33L146.41 418L146.05 417.71L145.67 417.44L145.27 417.21L144.84 417.01L144.41 416.84L143.95 416.72L143.48 416.62L142.99 416.57L142.49 416.57L129.46 416.96L129.46 430.75L143.69 430.75Z" id="b1UmScqumO"></path><path d="M185.78 407.54L186.23 407.6L186.67 407.67L187.11 407.77L187.53 407.88L187.96 408L188.37 408.15L188.78 408.3L189.18 408.48L189.57 408.67L189.96 408.87L190.33 409.09L190.69 409.32L191.04 409.57L191.39 409.83L191.73 410.1L192.05 410.39L192.36 410.68L192.66 410.99L192.95 411.3L193.23 411.64L193.49 411.98L193.74 412.33L193.98 412.69L194.19 413.06L194.41 413.44L194.6 413.83L194.77 414.23L194.94 414.64L195.09 415.05L195.22 415.47L195.34 415.9L195.44 416.33L195.52 416.77L195.58 417.22L195.63 417.67L195.66 418.13L195.66 418.59L195.66 428.29L195.66 428.7L195.63 429.12L195.59 429.52L195.54 429.92L195.46 430.32L195.38 430.71L195.28 431.1L195.16 431.47L195.03 431.85L194.89 432.22L194.74 432.57L194.56 432.93L194.38 433.27L194.19 433.61L193.98 433.94L193.76 434.26L193.53 434.57L193.29 434.87L193.04 435.17L192.77 435.45L192.5 435.72L192.21 435.99L191.92 436.24L191.61 436.48L191.51 436.56L198.43 456.87L188.91 457L185.58 447.49L182.86 438.69L170.28 439.12L170.17 456.61L160.99 456.61L160.59 407.77L184.41 407.47L184.87 407.47L185.33 407.5L185.78 407.54ZM184.28 430.24L184.66 430.22L185.04 430.17L185.41 430.09L185.77 429.99L186.11 429.85L186.44 429.69L186.76 429.5L187.05 429.29L187.33 429.05L187.59 428.8L187.83 428.52L188.04 428.23L188.23 427.92L188.39 427.59L188.53 427.25L188.64 426.89L188.73 426.52L188.78 426.15L188.8 425.76L188.84 421.69L188.83 421.2L188.76 420.72L188.66 420.24L188.52 419.79L188.35 419.35L188.14 418.94L187.9 418.54L187.63 418.17L187.33 417.82L186.99 417.49L186.64 417.2L186.26 416.93L185.86 416.7L185.44 416.5L184.99 416.33L184.54 416.2L184.07 416.11L183.58 416.06L183.09 416.05L170.05 416.45L170.05 430.24L184.28 430.24Z" id="c24XOIwmv3"></path><path d="M185.78 407.54L186.23 407.6L186.67 407.67L187.11 407.77L187.53 407.88L187.96 408L188.37 408.15L188.78 408.3L189.18 408.48L189.57 408.67L189.96 408.87L190.33 409.09L190.69 409.32L191.04 409.57L191.39 409.83L191.73 410.1L192.05 410.39L192.36 410.68L192.66 410.99L192.95 411.3L193.23 411.64L193.49 411.98L193.74 412.33L193.98 412.69L194.19 413.06L194.41 413.44L194.6 413.83L194.77 414.23L194.94 414.64L195.09 415.05L195.22 415.47L195.34 415.9L195.44 416.33L195.52 416.77L195.58 417.22L195.63 417.67L195.66 418.13L195.66 418.59L195.66 428.29L195.66 428.7L195.63 429.12L195.59 429.52L195.54 429.92L195.46 430.32L195.38 430.71L195.28 431.1L195.16 431.47L195.03 431.85L194.89 432.22L194.74 432.57L194.56 432.93L194.38 433.27L194.19 433.61L193.98 433.94L193.76 434.26L193.53 434.57L193.29 434.87L193.04 435.17L192.77 435.45L192.5 435.72L192.21 435.99L191.92 436.24L191.61 436.48L191.51 436.56L198.43 456.87L188.91 457L185.58 447.49L182.86 438.69L170.28 439.12L170.17 456.61L160.99 456.61L160.59 407.77L184.41 407.47L184.87 407.47L185.33 407.5L185.78 407.54ZM184.28 430.24L184.66 430.22L185.04 430.17L185.41 430.09L185.77 429.99L186.11 429.85L186.44 429.69L186.76 429.5L187.05 429.29L187.33 429.05L187.59 428.8L187.83 428.52L188.04 428.23L188.23 427.92L188.39 427.59L188.53 427.25L188.64 426.89L188.73 426.52L188.78 426.15L188.8 425.76L188.84 421.69L188.83 421.2L188.76 420.72L188.66 420.24L188.52 419.79L188.35 419.35L188.14 418.94L187.9 418.54L187.63 418.17L187.33 417.82L186.99 417.49L186.64 417.2L186.26 416.93L185.86 416.7L185.44 416.5L184.99 416.33L184.54 416.2L184.07 416.11L183.58 416.06L183.09 416.05L170.05 416.45L170.05 430.24L184.28 430.24Z" id="bNUeU5Wfv"></path><path d="M236.18 407.5L236.62 407.59L237.06 407.69L237.5 407.8L237.93 407.94L238.34 408.09L238.76 408.25L239.16 408.43L239.56 408.62L239.94 408.84L240.33 409.06L240.69 409.3L241.05 409.55L241.4 409.82L241.74 410.1L242.06 410.39L242.38 410.69L242.68 411L242.97 411.33L243.25 411.67L243.52 412.02L243.77 412.37L244.01 412.74L244.23 413.12L244.44 413.51L244.64 413.9L244.82 414.31L244.98 414.72L245.13 415.14L245.27 415.57L245.38 416L245.48 416.45L245.56 416.9L245.63 417.35L245.68 417.81L245.71 418.27L245.71 418.74L245.71 445.74L245.71 446.27L245.67 446.79L245.62 447.31L245.54 447.82L245.46 448.32L245.34 448.82L245.21 449.32L245.06 449.8L244.89 450.27L244.71 450.74L244.5 451.19L244.28 451.64L244.04 452.07L243.79 452.5L243.52 452.92L243.24 453.32L242.94 453.72L242.63 454.1L242.29 454.46L241.95 454.82L241.6 455.16L241.23 455.49L240.85 455.8L240.46 456.1L240.05 456.39L239.64 456.65L239.21 456.91L238.77 457.15L238.33 457.37L237.87 457.57L237.41 457.75L236.93 457.92L236.45 458.07L235.96 458.2L235.46 458.32L234.96 458.41L234.44 458.49L233.93 458.54L233.4 458.57L232.88 458.58L217.66 458.58L217.07 458.57L216.48 458.53L215.91 458.47L215.34 458.39L214.77 458.29L214.22 458.16L213.68 458.02L213.14 457.85L212.61 457.66L212.09 457.45L211.58 457.23L211.08 456.98L210.59 456.72L210.12 456.44L209.66 456.14L209.21 455.82L208.77 455.49L208.34 455.14L207.94 454.77L207.54 454.39L207.16 453.99L206.79 453.59L206.44 453.16L206.11 452.72L205.79 452.27L205.49 451.81L205.21 451.34L204.94 450.85L204.7 450.35L204.48 449.84L204.27 449.32L204.08 448.79L203.91 448.25L203.76 447.71L203.64 447.15L203.54 446.59L203.46 446.02L203.39 445.44L203.36 444.86L203.35 444.27L203.35 418.12L203.36 417.68L203.39 417.24L203.43 416.8L203.49 416.37L203.57 415.95L203.66 415.54L203.77 415.12L203.9 414.72L204.04 414.32L204.19 413.93L204.37 413.55L204.55 413.17L204.75 412.8L204.96 412.45L205.19 412.1L205.43 411.76L205.68 411.44L205.94 411.12L206.22 410.8L206.51 410.51L206.8 410.22L207.11 409.95L207.43 409.69L207.76 409.43L208.1 409.19L208.44 408.97L208.8 408.75L209.17 408.55L209.54 408.37L209.93 408.2L210.32 408.04L210.71 407.9L211.12 407.78L211.53 407.67L211.95 407.57L212.37 407.49L212.8 407.44L213.23 407.39L213.68 407.36L214.12 407.35L234.33 407.35L234.79 407.36L235.26 407.39L235.26 407.39L235.72 407.44L236.18 407.5ZM218.33 416.26L217.97 416.32L217.63 416.4L217.29 416.49L216.97 416.6L216.64 416.72L216.33 416.86L216.02 417.01L215.73 417.18L215.43 417.35L215.15 417.55L214.88 417.75L214.62 417.97L214.37 418.2L214.13 418.44L213.9 418.69L213.68 418.95L213.48 419.22L213.29 419.5L213.11 419.79L212.94 420.09L212.79 420.4L212.65 420.71L212.53 421.04L212.42 421.37L212.33 421.7L212.25 422.04L212.19 422.39L212.15 422.75L212.13 423.1L212.11 423.47L212.11 441.33L212.13 441.74L212.16 442.15L212.2 442.55L212.27 442.95L212.36 443.34L212.46 443.72L212.59 444.09L212.73 444.45L212.88 444.82L213.06 445.16L213.24 445.5L213.44 445.83L213.66 446.15L213.89 446.45L214.14 446.75L214.4 447.04L214.67 447.31L214.96 447.57L215.25 447.81L215.56 448.05L215.88 448.26L216.21 448.47L216.54 448.65L216.89 448.83L217.25 448.99L217.62 449.12L217.99 449.25L218.38 449.35L218.76 449.44L219.16 449.5L219.56 449.55L219.96 449.59L220.38 449.6L227.94 449.6L228.43 449.59L228.92 449.55L229.4 449.49L229.88 449.4L230.34 449.3L230.79 449.17L231.24 449.03L231.68 448.86L232.11 448.67L232.52 448.47L232.93 448.24L233.33 448L233.71 447.74L234.08 447.46L234.43 447.17L234.77 446.86L235.09 446.53L235.41 446.19L235.7 445.84L235.98 445.47L236.24 445.09L236.48 444.69L236.71 444.29L236.91 443.87L237.1 443.44L237.27 443L237.41 442.56L237.54 442.1L237.64 441.64L237.73 441.16L237.79 440.68L237.82 440.19L237.83 439.7L237.83 424.45L237.83 424.04L237.79 423.63L237.74 423.22L237.68 422.83L237.59 422.44L237.48 422.06L237.36 421.69L237.22 421.32L237.06 420.96L236.89 420.62L236.71 420.27L236.5 419.95L236.28 419.63L236.05 419.32L235.81 419.02L235.54 418.74L235.27 418.47L234.99 418.21L234.69 417.96L234.39 417.73L234.07 417.51L233.74 417.31L233.4 417.12L233.05 416.95L232.69 416.79L232.33 416.65L231.96 416.53L231.58 416.43L231.19 416.34L230.79 416.27L230.39 416.22L229.98 416.19L229.57 416.18L219.4 416.18L219.04 416.19L219.04 416.19L218.68 416.22L218.33 416.26Z" id="aaRk4E8RM"></path><path d="M236.18 407.5L236.62 407.59L237.06 407.69L237.5 407.8L237.93 407.94L238.34 408.09L238.76 408.25L239.16 408.43L239.56 408.62L239.94 408.84L240.33 409.06L240.69 409.3L241.05 409.55L241.4 409.82L241.74 410.1L242.06 410.39L242.38 410.69L242.68 411L242.97 411.33L243.25 411.67L243.52 412.02L243.77 412.37L244.01 412.74L244.23 413.12L244.44 413.51L244.64 413.9L244.82 414.31L244.98 414.72L245.13 415.14L245.27 415.57L245.38 416L245.48 416.45L245.56 416.9L245.63 417.35L245.68 417.81L245.71 418.27L245.71 418.74L245.71 445.74L245.71 446.27L245.67 446.79L245.62 447.31L245.54 447.82L245.46 448.32L245.34 448.82L245.21 449.32L245.06 449.8L244.89 450.27L244.71 450.74L244.5 451.19L244.28 451.64L244.04 452.07L243.79 452.5L243.52 452.92L243.24 453.32L242.94 453.72L242.63 454.1L242.29 454.46L241.95 454.82L241.6 455.16L241.23 455.49L240.85 455.8L240.46 456.1L240.05 456.39L239.64 456.65L239.21 456.91L238.77 457.15L238.33 457.37L237.87 457.57L237.41 457.75L236.93 457.92L236.45 458.07L235.96 458.2L235.46 458.32L234.96 458.41L234.44 458.49L233.93 458.54L233.4 458.57L232.88 458.58L217.66 458.58L217.07 458.57L216.48 458.53L215.91 458.47L215.34 458.39L214.77 458.29L214.22 458.16L213.68 458.02L213.14 457.85L212.61 457.66L212.09 457.45L211.58 457.23L211.08 456.98L210.59 456.72L210.12 456.44L209.66 456.14L209.21 455.82L208.77 455.49L208.34 455.14L207.94 454.77L207.54 454.39L207.16 453.99L206.79 453.59L206.44 453.16L206.11 452.72L205.79 452.27L205.49 451.81L205.21 451.34L204.94 450.85L204.7 450.35L204.48 449.84L204.27 449.32L204.08 448.79L203.91 448.25L203.76 447.71L203.64 447.15L203.54 446.59L203.46 446.02L203.39 445.44L203.36 444.86L203.35 444.27L203.35 418.12L203.36 417.68L203.39 417.24L203.43 416.8L203.49 416.37L203.57 415.95L203.66 415.54L203.77 415.12L203.9 414.72L204.04 414.32L204.19 413.93L204.37 413.55L204.55 413.17L204.75 412.8L204.96 412.45L205.19 412.1L205.43 411.76L205.68 411.44L205.94 411.12L206.22 410.8L206.51 410.51L206.8 410.22L207.11 409.95L207.43 409.69L207.76 409.43L208.1 409.19L208.44 408.97L208.8 408.75L209.17 408.55L209.54 408.37L209.93 408.2L210.32 408.04L210.71 407.9L211.12 407.78L211.53 407.67L211.95 407.57L212.37 407.49L212.8 407.44L213.23 407.39L213.68 407.36L214.12 407.35L234.33 407.35L234.79 407.36L235.26 407.39L235.26 407.39L235.72 407.44L236.18 407.5ZM218.33 416.26L217.97 416.32L217.63 416.4L217.29 416.49L216.97 416.6L216.64 416.72L216.33 416.86L216.02 417.01L215.73 417.18L215.43 417.35L215.15 417.55L214.88 417.75L214.62 417.97L214.37 418.2L214.13 418.44L213.9 418.69L213.68 418.95L213.48 419.22L213.29 419.5L213.11 419.79L212.94 420.09L212.79 420.4L212.65 420.71L212.53 421.04L212.42 421.37L212.33 421.7L212.25 422.04L212.19 422.39L212.15 422.75L212.13 423.1L212.11 423.47L212.11 441.33L212.13 441.74L212.16 442.15L212.2 442.55L212.27 442.95L212.36 443.34L212.46 443.72L212.59 444.09L212.73 444.45L212.88 444.82L213.06 445.16L213.24 445.5L213.44 445.83L213.66 446.15L213.89 446.45L214.14 446.75L214.4 447.04L214.67 447.31L214.96 447.57L215.25 447.81L215.56 448.05L215.88 448.26L216.21 448.47L216.54 448.65L216.89 448.83L217.25 448.99L217.62 449.12L217.99 449.25L218.38 449.35L218.76 449.44L219.16 449.5L219.56 449.55L219.96 449.59L220.38 449.6L227.94 449.6L228.43 449.59L228.92 449.55L229.4 449.49L229.88 449.4L230.34 449.3L230.79 449.17L231.24 449.03L231.68 448.86L232.11 448.67L232.52 448.47L232.93 448.24L233.33 448L233.71 447.74L234.08 447.46L234.43 447.17L234.77 446.86L235.09 446.53L235.41 446.19L235.7 445.84L235.98 445.47L236.24 445.09L236.48 444.69L236.71 444.29L236.91 443.87L237.1 443.44L237.27 443L237.41 442.56L237.54 442.1L237.64 441.64L237.73 441.16L237.79 440.68L237.82 440.19L237.83 439.7L237.83 424.45L237.83 424.04L237.79 423.63L237.74 423.22L237.68 422.83L237.59 422.44L237.48 422.06L237.36 421.69L237.22 421.32L237.06 420.96L236.89 420.62L236.71 420.27L236.5 419.95L236.28 419.63L236.05 419.32L235.81 419.02L235.54 418.74L235.27 418.47L234.99 418.21L234.69 417.96L234.39 417.73L234.07 417.51L233.74 417.31L233.4 417.12L233.05 416.95L232.69 416.79L232.33 416.65L231.96 416.53L231.58 416.43L231.19 416.34L230.79 416.27L230.39 416.22L229.98 416.19L229.57 416.18L219.4 416.18L219.04 416.19L219.04 416.19L218.68 416.22L218.33 416.26Z" id="bJjAMxHK5"></path><path d="M271.86 413.99C272.83 420.26 275.41 436.87 276.52 443.97C276.64 444.75 277.32 445.33 278.11 445.32C278.27 445.32 277.6 445.33 277.82 445.32C278.46 445.32 278.99 444.85 279.07 444.22C280.03 437.04 282.2 420.78 283.02 414.64C283.5 411.04 286.58 408.34 290.22 408.34C292.8 408.34 294.8 408.34 297.53 408.34C300.62 408.34 303.12 410.83 303.14 413.91C303.17 419.74 303.24 434.3 303.37 457.59C302.43 457.59 294.93 457.59 293.99 457.59C293.89 436.39 293.83 423.14 293.79 417.83C293.79 417.1 292.74 416.99 292.59 417.71C290.9 425.69 286.99 444.15 285.29 452.15C284.62 455.32 281.82 457.59 278.58 457.59C276.97 457.59 279.69 457.59 278.58 457.59C273.92 457.59 269.93 454.27 269.09 449.7C267.71 442.22 264.74 426.17 263.29 418.32C263.16 417.59 262.09 417.68 262.08 418.42C262 423.64 261.8 436.69 261.48 457.57C260.53 457.58 253 457.66 252.06 457.67C252.23 435.09 252.33 420.99 252.37 415.34C252.39 411.72 255.29 408.78 258.91 408.71C261.33 408.66 262.81 408.64 265.41 408.58C268.61 408.52 271.36 410.83 271.86 413.99Z" id="aiJbEIykD"></path><path d="M271.86 413.99C272.83 420.26 275.41 436.87 276.52 443.97C276.64 444.75 277.32 445.33 278.11 445.32C278.27 445.32 277.6 445.33 277.82 445.32C278.46 445.32 278.99 444.85 279.07 444.22C280.03 437.04 282.2 420.78 283.02 414.64C283.5 411.04 286.58 408.34 290.22 408.34C292.8 408.34 294.8 408.34 297.53 408.34C300.62 408.34 303.12 410.83 303.14 413.91C303.17 419.74 303.24 434.3 303.37 457.59C302.43 457.59 294.93 457.59 293.99 457.59C293.89 436.39 293.83 423.14 293.79 417.83C293.79 417.1 292.74 416.99 292.59 417.71C290.9 425.69 286.99 444.15 285.29 452.15C284.62 455.32 281.82 457.59 278.58 457.59C276.97 457.59 279.69 457.59 278.58 457.59C273.92 457.59 269.93 454.27 269.09 449.7C267.71 442.22 264.74 426.17 263.29 418.32C263.16 417.59 262.09 417.68 262.08 418.42C262 423.64 261.8 436.69 261.48 457.57C260.53 457.58 253 457.66 252.06 457.67C252.23 435.09 252.33 420.99 252.37 415.34C252.39 411.72 255.29 408.78 258.91 408.71C261.33 408.66 262.81 408.64 265.41 408.58C268.61 408.52 271.36 410.83 271.86 413.99Z" id="bBRDLH51w"></path><path d="M387.01 443.76L369.04 443.66L363.94 456.61L354.09 456.61L369.85 408.99L385.61 408.99L399.41 456.61L389.56 456.61L387.01 443.76ZM377.73 414.95L370.89 434.79L383.64 434.79L377.73 414.95Z" id="gpr5dth83"></path><path d="M387.01 443.76L369.04 443.66L363.94 456.61L354.09 456.61L369.85 408.99L385.61 408.99L399.41 456.61L389.56 456.61L387.01 443.76ZM377.73 414.95L370.89 434.79L383.64 434.79L377.73 414.95Z" id="e1bYkkZpQE"></path><path d="M342.58 407.18L343.03 407.26L343.46 407.36L343.9 407.47L344.33 407.61L344.75 407.75L345.16 407.92L345.57 408.1L345.96 408.3L346.35 408.51L346.73 408.74L347.09 408.97L347.46 409.22L347.8 409.49L348.14 409.77L348.47 410.06L348.78 410.36L349.09 410.68L349.38 411L349.66 411.34L349.92 411.69L350.17 412.05L350.41 412.42L350.64 412.8L350.84 413.19L351.04 413.58L351.23 413.99L351.39 414.4L351.54 414.82L351.67 415.24L351.79 415.68L351.89 416.12L351.97 416.57L352.03 417.02L352.08 417.48L352.11 417.95L352.12 418.42L352.12 445.41L352.11 445.94L352.08 446.47L352.03 446.99L351.95 447.49L351.86 448L351.74 448.5L351.61 448.99L351.46 449.47L351.29 449.94L351.11 450.41L350.91 450.87L350.68 451.31L350.45 451.75L350.19 452.17L349.92 452.59L349.64 453L349.34 453.39L349.03 453.77L348.7 454.14L348.36 454.49L348 454.84L347.63 455.16L347.25 455.47L346.86 455.77L346.46 456.06L346.04 456.33L345.61 456.58L345.17 456.82L344.73 457.04L344.28 457.24L343.81 457.43L343.34 457.6L342.85 457.75L342.36 457.88L341.86 457.99L341.36 458.09L340.85 458.16L340.33 458.21L339.81 458.24L339.28 458.25L324.06 458.25L323.47 458.24L322.89 458.2L322.31 458.15L321.74 458.07L321.17 457.96L320.63 457.84L320.08 457.69L319.54 457.52L319.01 457.34L318.49 457.13L317.98 456.9L317.49 456.65L317 456.39L316.52 456.11L316.06 455.81L315.61 455.49L315.17 455.16L314.75 454.81L314.34 454.44L313.94 454.06L313.56 453.67L313.2 453.25L312.85 452.83L312.51 452.39L312.19 451.94L311.89 451.48L311.61 451L311.35 450.52L311.11 450.02L310.88 449.52L310.67 449L310.48 448.47L310.31 447.93L310.17 447.39L310.04 446.83L309.94 446.27L309.86 445.7L309.8 445.12L309.76 444.54L309.75 443.94L309.75 417.8L309.76 417.35L309.79 416.91L309.83 416.48L309.89 416.05L309.97 415.62L310.07 415.21L310.17 414.8L310.3 414.39L310.44 413.99L310.6 413.6L310.77 413.22L310.96 412.85L311.16 412.48L311.37 412.12L311.59 411.77L311.83 411.44L312.08 411.1L312.34 410.79L312.62 410.48L312.91 410.18L313.21 409.89L313.51 409.62L313.83 409.35L314.16 409.1L314.5 408.87L314.85 408.64L315.21 408.43L315.58 408.23L315.95 408.04L316.33 407.87L316.72 407.72L317.12 407.58L317.52 407.45L317.93 407.34L318.35 407.25L318.77 407.17L319.21 407.1L319.64 407.06L320.08 407.04L320.52 407.03L340.73 407.03L341.2 407.04L341.66 407.07L341.66 407.07L342.13 407.11L342.58 407.18ZM324.72 415.94L324.38 415.99L324.04 416.07L323.7 416.17L323.37 416.27L323.04 416.4L322.73 416.54L322.42 416.69L322.13 416.85L321.84 417.03L321.56 417.22L321.28 417.43L321.02 417.64L320.77 417.87L320.53 418.11L320.31 418.36L320.09 418.62L319.88 418.89L319.69 419.17L319.51 419.47L319.34 419.76L319.19 420.07L319.06 420.39L318.93 420.71L318.83 421.04L318.73 421.37L318.66 421.72L318.59 422.07L318.55 422.42L318.52 422.78L318.52 423.14L318.52 441L318.52 441.42L318.56 441.82L318.61 442.22L318.67 442.62L318.76 443.01L318.87 443.39L318.99 443.77L319.13 444.13L319.29 444.49L319.46 444.84L319.64 445.17L319.85 445.5L320.07 445.82L320.3 446.13L320.54 446.42L320.8 446.71L321.08 446.98L321.36 447.24L321.66 447.49L321.96 447.72L322.28 447.94L322.61 448.14L322.95 448.33L323.3 448.5L323.66 448.65L324.02 448.8L324.39 448.92L324.77 449.02L325.16 449.11L325.56 449.18L325.96 449.23L326.37 449.26L326.78 449.27L334.34 449.27L334.84 449.25L335.32 449.22L335.81 449.16L336.28 449.08L336.74 448.97L337.2 448.85L337.65 448.7L338.09 448.54L338.51 448.35L338.93 448.14L339.34 447.92L339.73 447.67L340.11 447.41L340.48 447.14L340.83 446.84L341.17 446.53L341.5 446.2L341.81 445.87L342.11 445.51L342.38 445.14L342.64 444.76L342.89 444.37L343.11 443.96L343.32 443.55L343.51 443.12L343.67 442.68L343.82 442.23L343.94 441.77L344.04 441.31L344.13 440.84L344.19 440.35L344.23 439.87L344.24 439.37L344.24 424.12L344.23 423.71L344.19 423.3L344.14 422.9L344.07 422.5L343.99 422.12L343.89 421.74L343.76 421.36L343.63 420.99L343.47 420.64L343.29 420.29L343.11 419.95L342.91 419.62L342.69 419.3L342.46 418.99L342.21 418.7L341.95 418.42L341.67 418.14L341.39 417.89L341.1 417.64L340.79 417.4L340.47 417.19L340.14 416.99L339.81 416.8L339.46 416.62L339.1 416.47L338.73 416.33L338.36 416.2L337.98 416.1L337.59 416.01L337.19 415.95L336.79 415.9L336.38 415.87L335.97 415.85L325.81 415.85L325.44 415.87L325.44 415.87L325.08 415.89L324.72 415.94Z" id="f2mUTR0c5i"></path><path d="M342.58 407.18L343.03 407.26L343.46 407.36L343.9 407.47L344.33 407.61L344.75 407.75L345.16 407.92L345.57 408.1L345.96 408.3L346.35 408.51L346.73 408.74L347.09 408.97L347.46 409.22L347.8 409.49L348.14 409.77L348.47 410.06L348.78 410.36L349.09 410.68L349.38 411L349.66 411.34L349.92 411.69L350.17 412.05L350.41 412.42L350.64 412.8L350.84 413.19L351.04 413.58L351.23 413.99L351.39 414.4L351.54 414.82L351.67 415.24L351.79 415.68L351.89 416.12L351.97 416.57L352.03 417.02L352.08 417.48L352.11 417.95L352.12 418.42L352.12 445.41L352.11 445.94L352.08 446.47L352.03 446.99L351.95 447.49L351.86 448L351.74 448.5L351.61 448.99L351.46 449.47L351.29 449.94L351.11 450.41L350.91 450.87L350.68 451.31L350.45 451.75L350.19 452.17L349.92 452.59L349.64 453L349.34 453.39L349.03 453.77L348.7 454.14L348.36 454.49L348 454.84L347.63 455.16L347.25 455.47L346.86 455.77L346.46 456.06L346.04 456.33L345.61 456.58L345.17 456.82L344.73 457.04L344.28 457.24L343.81 457.43L343.34 457.6L342.85 457.75L342.36 457.88L341.86 457.99L341.36 458.09L340.85 458.16L340.33 458.21L339.81 458.24L339.28 458.25L324.06 458.25L323.47 458.24L322.89 458.2L322.31 458.15L321.74 458.07L321.17 457.96L320.63 457.84L320.08 457.69L319.54 457.52L319.01 457.34L318.49 457.13L317.98 456.9L317.49 456.65L317 456.39L316.52 456.11L316.06 455.81L315.61 455.49L315.17 455.16L314.75 454.81L314.34 454.44L313.94 454.06L313.56 453.67L313.2 453.25L312.85 452.83L312.51 452.39L312.19 451.94L311.89 451.48L311.61 451L311.35 450.52L311.11 450.02L310.88 449.52L310.67 449L310.48 448.47L310.31 447.93L310.17 447.39L310.04 446.83L309.94 446.27L309.86 445.7L309.8 445.12L309.76 444.54L309.75 443.94L309.75 417.8L309.76 417.35L309.79 416.91L309.83 416.48L309.89 416.05L309.97 415.62L310.07 415.21L310.17 414.8L310.3 414.39L310.44 413.99L310.6 413.6L310.77 413.22L310.96 412.85L311.16 412.48L311.37 412.12L311.59 411.77L311.83 411.44L312.08 411.1L312.34 410.79L312.62 410.48L312.91 410.18L313.21 409.89L313.51 409.62L313.83 409.35L314.16 409.1L314.5 408.87L314.85 408.64L315.21 408.43L315.58 408.23L315.95 408.04L316.33 407.87L316.72 407.72L317.12 407.58L317.52 407.45L317.93 407.34L318.35 407.25L318.77 407.17L319.21 407.1L319.64 407.06L320.08 407.04L320.52 407.03L340.73 407.03L341.2 407.04L341.66 407.07L341.66 407.07L342.13 407.11L342.58 407.18ZM324.72 415.94L324.38 415.99L324.04 416.07L323.7 416.17L323.37 416.27L323.04 416.4L322.73 416.54L322.42 416.69L322.13 416.85L321.84 417.03L321.56 417.22L321.28 417.43L321.02 417.64L320.77 417.87L320.53 418.11L320.31 418.36L320.09 418.62L319.88 418.89L319.69 419.17L319.51 419.47L319.34 419.76L319.19 420.07L319.06 420.39L318.93 420.71L318.83 421.04L318.73 421.37L318.66 421.72L318.59 422.07L318.55 422.42L318.52 422.78L318.52 423.14L318.52 441L318.52 441.42L318.56 441.82L318.61 442.22L318.67 442.62L318.76 443.01L318.87 443.39L318.99 443.77L319.13 444.13L319.29 444.49L319.46 444.84L319.64 445.17L319.85 445.5L320.07 445.82L320.3 446.13L320.54 446.42L320.8 446.71L321.08 446.98L321.36 447.24L321.66 447.49L321.96 447.72L322.28 447.94L322.61 448.14L322.95 448.33L323.3 448.5L323.66 448.65L324.02 448.8L324.39 448.92L324.77 449.02L325.16 449.11L325.56 449.18L325.96 449.23L326.37 449.26L326.78 449.27L334.34 449.27L334.84 449.25L335.32 449.22L335.81 449.16L336.28 449.08L336.74 448.97L337.2 448.85L337.65 448.7L338.09 448.54L338.51 448.35L338.93 448.14L339.34 447.92L339.73 447.67L340.11 447.41L340.48 447.14L340.83 446.84L341.17 446.53L341.5 446.2L341.81 445.87L342.11 445.51L342.38 445.14L342.64 444.76L342.89 444.37L343.11 443.96L343.32 443.55L343.51 443.12L343.67 442.68L343.82 442.23L343.94 441.77L344.04 441.31L344.13 440.84L344.19 440.35L344.23 439.87L344.24 439.37L344.24 424.12L344.23 423.71L344.19 423.3L344.14 422.9L344.07 422.5L343.99 422.12L343.89 421.74L343.76 421.36L343.63 420.99L343.47 420.64L343.29 420.29L343.11 419.95L342.91 419.62L342.69 419.3L342.46 418.99L342.21 418.7L341.95 418.42L341.67 418.14L341.39 417.89L341.1 417.64L340.79 417.4L340.47 417.19L340.14 416.99L339.81 416.8L339.46 416.62L339.1 416.47L338.73 416.33L338.36 416.2L337.98 416.1L337.59 416.01L337.19 415.95L336.79 415.9L336.38 415.87L335.97 415.85L325.81 415.85L325.44 415.87L325.44 415.87L325.08 415.89L324.72 415.94Z" id="duoRw5B3"></path><path d="M509.11 407.83L509.53 407.95L509.95 408.1L510.36 408.26L510.76 408.44L511.15 408.62L511.53 408.82L511.91 409.04L512.27 409.27L512.63 409.52L512.97 409.78L513.3 410.05L513.63 410.34L513.94 410.64L514.24 410.94L514.53 411.26L514.8 411.59L515.06 411.93L515.31 412.29L515.55 412.64L515.78 413.02L515.98 413.4L516.17 413.79L516.36 414.19L516.52 414.59L516.66 415L516.8 415.42L516.91 415.85L517.01 416.29L517.09 416.72L517.16 417.17L517.21 417.62L517.23 418.08L517.24 418.54L517.24 428.24L517.23 428.65L517.21 429.07L517.17 429.47L517.11 429.87L517.04 430.27L516.96 430.66L516.86 431.05L516.74 431.43L516.61 431.8L516.47 432.17L516.31 432.53L516.14 432.88L515.96 433.22L515.76 433.56L515.56 433.89L515.34 434.21L515.11 434.52L514.86 434.82L514.61 435.12L514.35 435.4L514.07 435.67L513.79 435.94L513.49 436.19L513.19 436.44L513.08 436.52L520 456.82L510.49 456.95L507.15 447.44L504.43 438.64L491.86 439.07L491.74 456.56L482.56 456.56L482.16 407.72L505.98 407.42L506.44 407.43L506.91 407.45L507.36 407.49L507.81 407.55L508.24 407.63L508.24 407.63L508.68 407.72L509.11 407.83ZM507.34 429.94L507.69 429.8L508.02 429.64L508.33 429.45L508.63 429.24L508.91 429.01L509.16 428.75L509.4 428.47L509.61 428.18L509.81 427.87L509.97 427.54L510.11 427.2L510.22 426.85L510.31 426.48L510.36 426.1L510.38 425.71L510.41 421.65L510.4 421.15L510.34 420.67L510.24 420.2L510.1 419.74L509.93 419.3L509.72 418.89L509.48 418.49L509.21 418.12L508.9 417.77L508.57 417.45L508.22 417.15L507.84 416.89L507.43 416.65L507.01 416.45L506.57 416.29L506.11 416.15L505.64 416.07L505.16 416.02L504.66 416.01L491.63 416.4L491.63 430.19L505.85 430.19L506.24 430.17L506.62 430.13L506.62 430.13L506.99 430.05L507.34 429.94Z" id="auoyXwg1X"></path><path d="M509.11 407.83L509.53 407.95L509.95 408.1L510.36 408.26L510.76 408.44L511.15 408.62L511.53 408.82L511.91 409.04L512.27 409.27L512.63 409.52L512.97 409.78L513.3 410.05L513.63 410.34L513.94 410.64L514.24 410.94L514.53 411.26L514.8 411.59L515.06 411.93L515.31 412.29L515.55 412.64L515.78 413.02L515.98 413.4L516.17 413.79L516.36 414.19L516.52 414.59L516.66 415L516.8 415.42L516.91 415.85L517.01 416.29L517.09 416.72L517.16 417.17L517.21 417.62L517.23 418.08L517.24 418.54L517.24 428.24L517.23 428.65L517.21 429.07L517.17 429.47L517.11 429.87L517.04 430.27L516.96 430.66L516.86 431.05L516.74 431.43L516.61 431.8L516.47 432.17L516.31 432.53L516.14 432.88L515.96 433.22L515.76 433.56L515.56 433.89L515.34 434.21L515.11 434.52L514.86 434.82L514.61 435.12L514.35 435.4L514.07 435.67L513.79 435.94L513.49 436.19L513.19 436.44L513.08 436.52L520 456.82L510.49 456.95L507.15 447.44L504.43 438.64L491.86 439.07L491.74 456.56L482.56 456.56L482.16 407.72L505.98 407.42L506.44 407.43L506.91 407.45L507.36 407.49L507.81 407.55L508.24 407.63L508.24 407.63L508.68 407.72L509.11 407.83ZM507.34 429.94L507.69 429.8L508.02 429.64L508.33 429.45L508.63 429.24L508.91 429.01L509.16 428.75L509.4 428.47L509.61 428.18L509.81 427.87L509.97 427.54L510.11 427.2L510.22 426.85L510.31 426.48L510.36 426.1L510.38 425.71L510.41 421.65L510.4 421.15L510.34 420.67L510.24 420.2L510.1 419.74L509.93 419.3L509.72 418.89L509.48 418.49L509.21 418.12L508.9 417.77L508.57 417.45L508.22 417.15L507.84 416.89L507.43 416.65L507.01 416.45L506.57 416.29L506.11 416.15L505.64 416.07L505.16 416.02L504.66 416.01L491.63 416.4L491.63 430.19L505.85 430.19L506.24 430.17L506.62 430.13L506.62 430.13L506.99 430.05L507.34 429.94Z" id="b1ONpoACbD"></path><path d="M466.4 407.35C466.4 426.85 466.4 439.03 466.4 443.9C466.4 446.95 463.91 449.4 460.87 449.37C458.43 449.34 457.14 449.32 454.83 449.29C451.41 449.24 448.65 446.47 448.62 443.05C448.59 438.29 448.5 426.39 448.36 407.35C447.41 407.35 439.77 407.35 438.81 407.35C438.81 427.78 438.81 440.55 438.81 445.65C438.81 452.31 444.33 457.65 450.99 457.42C455.88 457.26 456.89 457.23 461.42 457.08C469.23 456.82 475.4 450.39 475.34 442.57C475.31 437.88 475.22 426.14 475.08 407.35C473.35 407.35 467.27 407.35 466.4 407.35Z" id="bJtvnAVFv"></path><path d="M466.4 407.35C466.4 426.85 466.4 439.03 466.4 443.9C466.4 446.95 463.91 449.4 460.87 449.37C458.43 449.34 457.14 449.32 454.83 449.29C451.41 449.24 448.65 446.47 448.62 443.05C448.59 438.29 448.5 426.39 448.36 407.35C447.41 407.35 439.77 407.35 438.81 407.35C438.81 427.78 438.81 440.55 438.81 445.65C438.81 452.31 444.33 457.65 450.99 457.42C455.88 457.26 456.89 457.23 461.42 457.08C469.23 456.82 475.4 450.39 475.34 442.57C475.31 437.88 475.22 426.14 475.08 407.35C473.35 407.35 467.27 407.35 466.4 407.35Z" id="b1aIzn57qc"></path><path d="M392.96 342.74L391.49 343.65L391.49 346.29L401.11 355.99L403.31 359.47L407.54 359.99L409.15 362.02L410.81 360.74L411.31 360.22L411.36 360.17L411.4 360.12L411.44 360.07L411.48 360.02L411.51 359.97L411.55 359.91L411.58 359.85L411.61 359.8L411.64 359.74L411.66 359.69L411.68 359.63L411.71 359.57L411.73 359.51L411.74 359.45L411.76 359.39L411.76 359.34L411.78 359.27L411.78 359.21L411.79 359.15L411.79 359.09L411.79 359.03L411.79 358.97L411.79 358.9L411.78 358.84L411.78 358.79L411.76 358.72L411.76 358.66L411.74 358.6L411.73 358.54L411.71 358.48L411.68 358.42L411.66 358.37L411.64 358.31L411.61 358.25L411.58 358.2L411.54 358.14L411.51 358.09L411.48 358.04L411.44 357.98L411.4 357.93L411.32 357.84L411.25 357.75L411.19 357.67L411.13 357.59L411.06 357.5L411.01 357.42L410.94 357.34L410.89 357.25L410.84 357.16L410.78 357.07L410.73 356.99L410.68 356.89L410.64 356.8L410.59 356.71L410.54 356.62L410.5 356.52L410.46 356.43L410.42 356.34L410.38 356.24L410.34 356.15L410.31 356.05L410.28 355.95L410.25 355.85L410.22 355.75L410.19 355.66L410.17 355.56L410.14 355.46L410.12 355.36L410.1 355.26L410.08 355.16L410.07 355.05L410.05 354.95L410.04 354.85L410.03 354.75L410.02 354.65L410.01 354.54L410.01 354.44L410 354.34L410 354.24L410 354.13L410 354.03L410.04 352.43L410.81 349.77L410.84 349.62L410.88 349.47L410.93 349.32L410.97 349.17L411.02 349.03L411.08 348.89L411.14 348.75L411.21 348.61L411.28 348.47L411.34 348.34L411.42 348.21L411.51 348.09L411.59 347.96L411.68 347.84L411.78 347.72L411.87 347.61L411.97 347.5L412.08 347.39L412.18 347.29L412.29 347.19L412.4 347.09L412.52 346.99L412.64 346.9L412.76 346.82L412.89 346.74L413.01 346.65L413.14 346.58L413.28 346.51L413.41 346.45L413.55 346.39L413.69 346.33L413.83 346.27L413.98 346.22L414.12 346.18L414.27 346.14L414.42 346.11L414.57 346.08L414.73 346.05L414.88 346.04L415.04 346.02L417.28 345.85L417.44 345.84L417.61 345.84L417.77 345.84L417.93 345.85L418.09 345.86L418.26 345.88L418.42 345.9L418.58 345.93L418.73 345.97L418.89 346L419.04 346.05L419.19 346.1L419.34 346.15L419.49 346.22L419.63 346.28L419.78 346.35L419.92 346.42L420.06 346.5L420.19 346.59L420.32 346.67L420.45 346.77L420.58 346.86L420.69 346.96L420.81 347.07L420.93 347.17L421.04 347.29L421.15 347.4L421.26 347.52L421.36 347.64L421.46 347.77L421.54 347.9L421.64 348.04L421.72 348.17L421.8 348.32L421.88 348.46L421.94 348.6L422.01 348.75L422.07 348.91L422.13 349.07L422.18 349.22L423 351.99L423.03 352.09L423.06 352.2L423.09 352.3L423.11 352.41L423.14 352.52L423.16 352.63L423.18 352.74L423.2 352.84L423.22 352.95L423.24 353.06L423.25 353.17L423.26 353.28L423.28 353.39L423.28 353.5L423.29 353.61L423.3 353.72L423.3 353.83L423.31 353.94L423.31 354.05L423.31 354.15L423.31 354.27L423.3 354.37L423.29 354.49L423.29 354.59L423.28 354.7L423.27 354.81L423.26 354.92L423.24 355.03L423.23 355.14L423.21 355.25L423.19 355.35L423.17 355.46L423.16 355.57L423.13 355.68L423.11 355.79L423.08 355.89L423.05 356L423.02 356.1L422.99 356.21L422.96 356.32L422.77 356.89L422.74 356.99L422.72 357.09L422.69 357.19L422.67 357.28L422.66 357.38L422.65 357.48L422.64 357.57L422.63 357.67L422.63 357.77L422.63 357.87L422.64 357.96L422.64 358.06L422.66 358.15L422.67 358.25L422.69 358.34L422.71 358.44L422.73 358.53L422.76 358.62L422.79 358.71L422.82 358.8L422.85 358.89L422.89 358.98L422.93 359.07L422.98 359.15L423.02 359.24L423.07 359.32L423.13 359.4L423.17 359.48L423.24 359.55L423.29 359.62L423.36 359.64L423.47 359.67L423.57 359.7L423.67 359.72L423.78 359.74L423.89 359.76L423.99 359.78L424.1 359.79L424.21 359.81L424.31 359.82L424.42 359.83L424.53 359.84L424.64 359.84L424.74 359.84L424.86 359.84L424.96 359.84L425.07 359.84L425.17 359.82L425.29 359.82L425.39 359.8L425.5 359.79L425.61 359.78L425.72 359.76L425.83 359.74L425.93 359.72L426.04 359.69L426.14 359.67L426.25 359.64L430.87 358.31L430.99 358.27L431.11 358.24L431.23 358.2L431.35 358.16L431.48 358.12L431.59 358.07L431.71 358.03L431.83 357.99L431.95 357.94L432.06 357.89L432.18 357.84L432.29 357.79L432.41 357.73L432.53 357.68L432.64 357.62L432.75 357.57L432.86 357.5L432.98 357.45L433.09 357.39L433.2 357.32L433.31 357.26L433.41 357.19L433.53 357.13L433.63 357.06L433.74 356.99L433.84 356.92L433.94 356.85L434.05 356.77L434.15 356.7L434.26 356.62L434.36 356.55L434.46 356.47L434.56 356.39L434.65 356.31L434.75 356.23L434.84 356.15L434.94 356.06L435.04 355.98L435.13 355.89L435.22 355.8L433.36 357.6L433.61 357.36L433.86 357.12L434.11 356.89L434.37 356.65L434.62 356.42L434.88 356.18L435.14 355.95L435.39 355.72L435.66 355.5L435.92 355.27L436.18 355.04L436.45 354.82L436.71 354.6L436.98 354.38L437.25 354.16L437.52 353.95L437.79 353.73L438.06 353.52L438.34 353.3L438.61 353.09L438.89 352.89L439.17 352.68L439.44 352.47L439.73 352.27L440.01 352.07L440.29 351.87L440.57 351.67L440.86 351.47L441.14 351.27L441.42 351.08L441.71 350.89L442.01 350.7L442.29 350.5L442.59 350.32L442.88 350.14L443.17 349.95L443.46 349.77L443.76 349.59L444.06 349.4L444.36 349.23L453.59 343.76L453.93 341.1L453.94 341.03L453.96 340.96L453.97 340.89L453.99 340.82L454.01 340.75L454.03 340.68L454.06 340.61L454.09 340.55L454.11 340.49L454.15 340.42L454.18 340.36L454.22 340.3L454.26 340.24L454.3 340.18L454.34 340.13L454.39 340.07L454.43 340.02L454.48 339.97L454.53 339.92L454.58 339.87L454.63 339.83L454.69 339.79L454.74 339.74L454.8 339.7L454.86 339.67L454.92 339.63L454.98 339.6L455.04 339.57L455.11 339.54L455.17 339.51L455.24 339.49L455.31 339.47L455.38 339.45L455.45 339.43L455.52 339.42L455.59 339.4L455.66 339.39L455.74 339.39L455.81 339.39L455.88 339.38L456.35 339.38L456.44 339.39L456.54 339.39L456.63 339.39L456.72 339.4L456.81 339.41L456.91 339.42L457 339.44L457.09 339.45L457.18 339.47L457.27 339.49L457.36 339.51L457.45 339.53L457.54 339.55L457.63 339.59L457.71 339.62L457.8 339.65L457.88 339.68L457.97 339.72L458.05 339.75L458.13 339.79L458.22 339.83L458.3 339.87L458.38 339.92L458.46 339.97L458.54 340.01L458.61 340.06L458.69 340.11L458.76 340.17L458.84 340.22L458.91 340.28L458.98 340.34L459.02 340.37L459.04 340.4L459.07 340.49L459.11 340.58L459.14 340.67L459.17 340.75L459.19 340.85L459.21 340.94L459.23 341.03L459.25 341.12L459.26 341.22L459.27 341.31L459.28 341.4L459.28 341.49L459.28 341.59L459.27 341.68L459.26 341.77L459.26 341.87L459.24 341.95L459.23 342.05L459.21 342.14L459.18 342.23L459.16 342.32L459.13 342.41L459.09 342.5L459.06 342.59L459.03 342.67L458.98 342.75L458.94 342.84L458.89 342.92L458.84 343L458.78 343.09L458.73 343.16L458.66 343.24L458.6 343.32L456.55 345.66L454.36 348.55L454.36 352.47L454.28 352.52L454.21 352.57L454.13 352.62L454.06 352.66L453.99 352.71L453.92 352.75L453.86 352.8L453.79 352.84L453.73 352.88L453.67 352.92L453.61 352.96L453.56 353L453.5 353.04L453.44 353.07L453.39 353.11L453.34 353.15L453.29 353.18L453.24 353.22L453.2 353.25L453.16 353.28L453.11 353.31L453.07 353.34L453.03 353.37L452.99 353.39L452.96 353.42L452.92 353.45L452.89 353.47L452.86 353.5L452.83 353.52L452.81 353.54L452.78 353.56L452.76 353.59L452.73 353.6L452.71 353.62L452.69 353.64L452.67 353.65L452.66 353.67L452.64 353.69L452.63 353.7L452.63 353.71L452.31 354.1L452.03 354.49L451.75 354.84L451.49 355.18L451.25 355.5L451.02 355.8L450.8 356.1L450.59 356.37L450.4 356.64L450.21 356.89L450.03 357.13L449.86 357.36L449.7 357.58L449.54 357.79L449.39 358L449.23 358.19L449.08 358.39L448.94 358.57L448.79 358.75L448.64 358.93L448.48 359.1L448.33 359.28L448.16 359.45L448 359.63L447.82 359.8L447.65 359.99L447.46 360.17L447.26 360.35L447.05 360.54L446.83 360.74L446.6 360.94L446.35 361.15L446.09 361.37L445.81 361.6L445.51 361.84L445.2 362.09L444.87 362.35L444.51 362.63L444.14 362.92L443.74 363.22L443.67 363.28L443.59 363.35L443.48 363.44L443.35 363.54L443.21 363.66L443.04 363.79L442.87 363.94L442.68 364.09L442.48 364.26L442.27 364.44L442.04 364.62L441.81 364.82L441.56 365.02L441.31 365.23L441.06 365.44L440.79 365.66L440.53 365.89L440.26 366.11L439.99 366.34L439.71 366.57L439.44 366.79L439.17 367.02L438.9 367.24L438.63 367.47L438.37 367.69L438.11 367.9L437.86 368.1L437.62 368.3L437.39 368.5L437.16 368.69L436.94 368.86L436.74 369.03L436.55 369.19L436.38 369.33L436.21 369.46L436.07 369.57L435.94 369.68L435.83 369.76L435.74 369.83L435.67 369.89L432.49 372.14L432.33 372.26L432.17 372.39L432.01 372.51L431.86 372.64L431.71 372.78L431.56 372.92L431.41 373.05L431.28 373.2L431.14 373.34L431.01 373.49L430.88 373.65L430.76 373.8L430.63 373.96L430.52 374.12L430.41 374.28L430.29 374.45L430.19 374.62L430.09 374.79L429.99 374.96L429.9 375.14L429.81 375.31L429.73 375.49L429.64 375.67L429.57 375.85L429.5 376.04L429.43 376.22L429.37 376.41L429.31 376.6L429.26 376.79L429.21 376.99L429.16 377.18L429.12 377.37L429.08 377.57L429.05 377.77L429.03 377.97L429.01 378.17L428.99 378.37L428.98 378.57L428.97 378.77L428.96 378.98L428.96 379.52L428.97 379.67L428.97 379.83L428.98 379.99L428.98 380.15L428.99 380.3L429 380.46L429.01 380.62L429.03 380.77L429.04 380.93L429.06 381.09L429.08 381.24L429.11 381.4L429.13 381.55L429.16 381.71L429.18 381.86L429.21 382.02L429.24 382.17L429.28 382.32L429.31 382.48L429.35 382.63L429.39 382.78L429.43 382.94L429.47 383.09L429.52 383.24L429.56 383.39L429.61 383.54L429.66 383.69L429.71 383.83L429.77 383.98L429.83 384.13L429.88 384.27L429.94 384.42L430 384.57L430.06 384.71L430.13 384.85L430.19 385L430.26 385.14L430.33 385.28L430.41 385.42L430.48 385.56L430.56 385.71L430.63 385.86L430.71 386.02L430.78 386.17L430.86 386.33L430.93 386.49L430.99 386.64L431.06 386.8L431.12 386.95L431.18 387.12L431.24 387.27L431.3 387.44L431.35 387.6L431.41 387.76L431.46 387.92L431.51 388.09L431.55 388.25L431.59 388.41L431.64 388.57L431.67 388.74L431.72 388.9L431.75 389.07L431.79 389.24L431.82 389.4L431.84 389.57L431.88 389.74L431.9 389.91L431.92 390.08L431.94 390.25L431.96 390.42L431.98 390.59L431.99 390.76L432 390.93L432.01 391.1L432.02 391.27L432.03 391.44L432.03 391.61L432.03 391.78L432.03 391.95L432.03 392.12L431.96 394.24L431.11 399.96L429.76 400.29L428.89 426.37L425.54 427.19L424.11 436.34L422.46 446.99L422.44 447.15L422.42 447.3L422.41 447.46L422.39 447.62L422.38 447.78L422.36 447.94L422.36 448.09L422.35 448.25L422.34 448.4L422.34 448.57L422.34 448.72L422.35 448.88L422.36 449.04L422.36 449.19L422.38 449.35L422.39 449.5L422.4 449.66L422.42 449.82L422.44 449.97L422.46 450.13L422.49 450.28L422.51 450.44L422.54 450.59L422.58 450.74L422.61 450.9L422.64 451.05L422.68 451.2L422.73 451.35L422.77 451.5L422.81 451.65L422.86 451.8L422.91 451.95L422.96 452.1L423.02 452.25L423.08 452.4L423.13 452.54L423.19 452.69L423.26 452.84L423.33 452.98L423.39 453.12L423.48 453.3L423.51 453.36L423.54 453.42L423.58 453.48L423.61 453.54L423.64 453.59L423.68 453.65L423.72 453.71L423.76 453.76L423.79 453.82L423.84 453.87L423.88 453.92L423.92 453.97L423.97 454.02L424.01 454.07L424.06 454.12L424.11 454.17L424.16 454.22L424.21 454.27L424.26 454.31L424.31 454.35L424.36 454.39L424.41 454.44L424.46 454.47L424.52 454.52L424.58 454.55L424.63 454.59L424.69 454.62L424.74 454.66L424.8 454.69L424.86 454.72L424.92 454.75L424.98 454.79L425.04 454.82L425.11 454.84L425.17 454.87L425.23 454.89L425.29 454.92L425.36 454.94L425.42 454.95L425.49 454.97L425.64 455.02L425.79 455.06L425.93 455.11L426.08 455.16L426.23 455.21L426.37 455.26L426.51 455.32L426.65 455.37L426.79 455.44L426.93 455.5L427.07 455.56L427.21 455.63L427.34 455.69L427.48 455.76L427.61 455.84L427.75 455.91L427.88 455.99L428.01 456.06L428.14 456.14L428.27 456.22L428.4 456.3L428.53 456.39L428.65 456.48L428.78 456.57L428.89 456.66L429.02 456.75L429.14 456.85L429.26 456.94L429.37 457.04L429.49 457.14L429.6 457.24L429.71 457.35L429.83 457.45L429.93 457.56L430.04 457.67L430.15 457.78L430.25 457.89L430.36 458L430.46 458.12L430.56 458.24L431.11 458.89L430.94 461.64L430.83 461.66L430.73 461.69L430.63 461.7L430.52 461.72L430.41 461.74L430.31 461.75L430.21 461.77L430.1 461.78L429.99 461.79L429.89 461.8L429.79 461.81L429.68 461.82L429.58 461.83L429.47 461.84L429.36 461.84L429.26 461.85L429.15 461.85L429.04 461.85L428.94 461.85L428.83 461.85L428.73 461.85L428.62 461.85L428.51 461.85L428.41 461.85L428.3 461.84L428.19 461.84L428.08 461.83L427.98 461.82L427.87 461.81L427.76 461.8L427.66 461.79L427.54 461.78L427.44 461.77L427.33 461.75L427.23 461.74L427.11 461.72L427.01 461.7L426.9 461.69L426.79 461.66L426.68 461.64L426.57 461.62L426.47 461.6L426.36 461.57L426.26 461.55L426.16 461.52L426.06 461.5L425.96 461.47L425.86 461.44L425.76 461.41L425.66 461.38L425.57 461.35L425.48 461.31L425.39 461.28L425.29 461.24L425.21 461.2L425.12 461.17L425.04 461.13L424.95 461.09L424.87 461.05L424.79 461.01L424.71 460.97L424.63 460.92L424.55 460.87L424.48 460.83L424.4 460.79L424.33 460.74L424.25 460.69L424.18 460.64L424.11 460.59L424.04 460.53L423.98 460.48L423.91 460.42L423.85 460.37L423.79 460.31L423.73 460.25L423.66 460.2L423.61 460.14L423.55 460.07L423.49 460.01L423.44 459.95L424.58 462.63L421.97 463.21L416.05 464.01L407.54 459.95L409.15 451.03L406.92 444.16L406.52 436.73L407.24 427.74L403.73 426.99L403.31 401.8L399.92 401.8L399.19 391.41L399.19 380.86L394.78 380.55L393.63 376.49L396.56 371.32L396.5 368.45L390.04 358.94L387.28 350.54L386.93 346.29L386.93 338.14L390.88 338.42L392.96 340.67L392.96 342.74ZM416.78 426.58L416.59 426.8L416.41 427.02L416.24 427.25L416.08 427.48L415.91 427.72L415.76 427.95L415.62 428.2L415.48 428.45L415.36 428.71L415.23 428.97L415.12 429.23L415.01 429.5L414.92 429.77L414.83 430.04L414.51 431.08L414.47 431.19L414.38 431.32L414.29 431.45L414.21 431.6L414.13 431.74L414.06 431.89L413.99 432.03L413.94 432.18L413.88 432.33L413.83 432.49L413.79 432.64L413.75 432.8L413.72 432.95L413.69 433.12L413.67 433.28L413.66 433.44L413.65 433.6L413.65 433.77L413.78 451.69L416.91 449.42L416.51 440.59L416.48 439.7L416.46 438.8L416.45 437.91L416.46 437.02L416.48 436.13L416.51 435.24L416.57 434.35L416.63 433.45L416.71 432.57L416.8 431.68L416.91 430.79L417.03 429.91L417.16 429.03L417.31 428.15L417.48 427.27L417.65 426.39L417.84 425.52L417.38 425.96L417.17 426.16L416.97 426.37L416.78 426.58ZM423.87 360.16L423.79 360.1L423.71 360.04L423.64 359.98L423.56 359.91L423.49 359.84L423.43 359.77L423.36 359.7L423.29 359.63L423.29 359.62L423.26 359.61L423.16 359.58L423.06 359.55L422.95 359.51L422.85 359.47L422.75 359.43L422.65 359.39L422.55 359.34L422.45 359.29L422.36 359.24L422.26 359.19L422.16 359.14L422.07 359.09L424.04 360.27L423.96 360.22L423.87 360.16ZM459.38 340.72L459.32 340.65L459.26 340.59L459.19 340.52L459.12 340.45L459.05 340.4L459.02 340.37L458.99 340.32L458.95 340.23L458.91 340.15L458.86 340.07L458.8 339.99L458.74 339.9L458.69 339.83L459.56 340.94L459.51 340.86L459.44 340.79L459.38 340.72Z" id="f17ecZgZw"></path></defs><g><g><g><use xlink:href="#ehIsMij3u" opacity="1" fill="#dac40b" fill-opacity="1"></use><g><use xlink:href="#ehIsMij3u" opacity="1" fill-opacity="0" stroke="#000000" stroke-width="1" stroke-opacity="0"></use></g></g><g><use xlink:href="#bk2LCwXHr" opacity="1" fill="#000000" fill-opacity="0"></use><g><use xlink:href="#bk2LCwXHr" opacity="1" fill-opacity="0" stroke="#25054c" stroke-width="0" stroke-opacity="1"></use></g></g><g><use xlink:href="#b1JNBYkgfw" opacity="1" fill="#005cae" fill-opacity="1"></use><g><use xlink:href="#b1JNBYkgfw" opacity="1" fill-opacity="0" stroke="#000000" stroke-width="1" stroke-opacity="0"></use></g></g><g><use xlink:href="#a1GxzLVsX1" opacity="1" fill="#15684c" fill-opacity="1"></use><g><use xlink:href="#a1GxzLVsX1" opacity="1" fill-opacity="0" stroke="#000000" stroke-width="1" stroke-opacity="0"></use></g></g><g><use xlink:href="#cAhKkmdIV" opacity="1" fill="#000000" fill-opacity="0"></use><g><use xlink:href="#cAhKkmdIV" opacity="1" fill-opacity="0" stroke="#000000" stroke-width="0" stroke-opacity="1"></use></g></g><g><use xlink:href="#c5jKFvxM5" opacity="1" fill="#ffffff" fill-opacity="1"></use><g><use xlink:href="#c5jKFvxM5" opacity="1" fill-opacity="0" stroke="#000000" stroke-width="1" stroke-opacity="0"></use></g></g><g><use xlink:href="#egs4QtLC" opacity="1" fill="#005cae" fill-opacity="1"></use><g><use xlink:href="#egs4QtLC" opacity="1" fill-opacity="0" stroke="#000000" stroke-width="1" stroke-opacity="0"></use></g></g><g><use xlink:href="#a2Rot0ciVk" opacity="1" fill="#0e6c4c" fill-opacity="1"></use><g><use xlink:href="#a2Rot0ciVk" opacity="1" fill-opacity="0" stroke="#000000" stroke-width="1" stroke-opacity="0"></use></g></g><g><use xlink:href="#b1UmScqumO" opacity="1" fill="#000000" fill-opacity="0"></use><g><use xlink:href="#b1UmScqumO" opacity="1" fill-opacity="0" stroke="#000000" stroke-width="0" stroke-opacity="1"></use></g></g><g><use xlink:href="#c24XOIwmv3" opacity="1" fill="#0e6c4c" fill-opacity="1"></use><g><use xlink:href="#c24XOIwmv3" opacity="1" fill-opacity="0" stroke="#000000" stroke-width="1" stroke-opacity="0"></use></g></g><g><use xlink:href="#bNUeU5Wfv" opacity="1" fill="#000000" fill-opacity="0"></use><g><use xlink:href="#bNUeU5Wfv" opacity="1" fill-opacity="0" stroke="#000000" stroke-width="0" stroke-opacity="1"></use></g></g><g><use xlink:href="#aaRk4E8RM" opacity="1" fill="#0d6c4b" fill-opacity="1"></use><g><use xlink:href="#aaRk4E8RM" opacity="1" fill-opacity="0" stroke="#000000" stroke-width="1" stroke-opacity="0"></use></g></g><g><use xlink:href="#bJjAMxHK5" opacity="1" fill="#000000" fill-opacity="0"></use><g><use xlink:href="#bJjAMxHK5" opacity="1" fill-opacity="0" stroke="#000000" stroke-width="0" stroke-opacity="1"></use></g></g><g><use xlink:href="#aiJbEIykD" opacity="1" fill="#076f4b" fill-opacity="1"></use><g><use xlink:href="#aiJbEIykD" opacity="1" fill-opacity="0" stroke="#000000" stroke-width="1" stroke-opacity="0"></use></g></g><g><use xlink:href="#bBRDLH51w" opacity="1" fill="#000000" fill-opacity="0"></use><g><use xlink:href="#bBRDLH51w" opacity="1" fill-opacity="0" stroke="#000000" stroke-width="0" stroke-opacity="1"></use></g></g><g><use xlink:href="#gpr5dth83" opacity="1" fill="#086c4a" fill-opacity="1"></use><g><use xlink:href="#gpr5dth83" opacity="1" fill-opacity="0" stroke="#000000" stroke-width="1" stroke-opacity="0"></use></g></g><g><use xlink:href="#e1bYkkZpQE" opacity="1" fill="#000000" fill-opacity="0"></use><g><use xlink:href="#e1bYkkZpQE" opacity="1" fill-opacity="0" stroke="#000000" stroke-width="0" stroke-opacity="1"></use></g></g><g><use xlink:href="#f2mUTR0c5i" opacity="1" fill="#0d6c4b" fill-opacity="1"></use><g><use xlink:href="#f2mUTR0c5i" opacity="1" fill-opacity="0" stroke="#000000" stroke-width="1" stroke-opacity="0"></use></g></g><g><use xlink:href="#duoRw5B3" opacity="1" fill="#000000" fill-opacity="0"></use><g><use xlink:href="#duoRw5B3" opacity="1" fill-opacity="0" stroke="#000000" stroke-width="0" stroke-opacity="1"></use></g></g><g><use xlink:href="#auoyXwg1X" opacity="1" fill="#3ca635" fill-opacity="1"></use><g><use xlink:href="#auoyXwg1X" opacity="1" fill-opacity="0" stroke="#000000" stroke-width="1" stroke-opacity="0"></use></g></g><g><use xlink:href="#b1ONpoACbD" opacity="1" fill="#000000" fill-opacity="0"></use><g><use xlink:href="#b1ONpoACbD" opacity="1" fill-opacity="0" stroke="#000000" stroke-width="0" stroke-opacity="1"></use></g></g><g><use xlink:href="#bJtvnAVFv" opacity="1" fill="#3ba635" fill-opacity="1"></use><g><use xlink:href="#bJtvnAVFv" opacity="1" fill-opacity="0" stroke="#000000" stroke-width="1" stroke-opacity="0"></use></g></g><g><use xlink:href="#b1aIzn57qc" opacity="1" fill="#000000" fill-opacity="0"></use><g><use xlink:href="#b1aIzn57qc" opacity="1" fill-opacity="0" stroke="#000000" stroke-width="0" stroke-opacity="1"></use></g></g><g><use xlink:href="#f17ecZgZw" opacity="1" fill="#663a15" fill-opacity="1"></use><g><use xlink:href="#f17ecZgZw" opacity="1" fill-opacity="0" stroke="#000000" stroke-width="1" stroke-opacity="0"></use></g></g></g></g></svg>