<?xml version="1.0" encoding="UTF-8" standalone="no"?>
<!DOCTYPE svg PUBLIC "-//W3C//DTD SVG 1.1//EN" "http://www.w3.org/Graphics/SVG/1.1/DTD/svg11.dtd">
<svg version="1.1" xmlns="http://www.w3.org/2000/svg" xmlns:xlink="http://www.w3.org/1999/xlink" preserveAspectRatio="xMidYMid meet" viewBox="0 0 640 640" width="50" height="50"><defs><path d="M554.61 294.81C560.5 294.81 565.23 290.01 565.23 284.2C565.1 173.8 474.48 84.37 362.62 84.24C356.73 84.24 351.99 89.04 351.99 94.85C351.99 100.67 356.73 105.34 362.62 105.34C462.71 105.47 543.86 185.42 543.98 284.2C543.98 290.01 548.72 294.81 554.61 294.81Z" id="jlI9t4iWJ"></path><path d="M443 410.14C439.28 414.94 409.08 453.22 405.37 458.02C400.5 464.33 391.67 466.1 384.63 462.31C383.86 461.93 378.1 458.77 377.46 458.4C353.66 445.64 324.09 429.72 264.44 370.73C204.8 311.87 188.54 282.69 175.62 259.19C175.23 258.44 172.03 252.88 171.65 252.12C167.68 245.17 169.6 236.46 176 231.66C180.74 227.87 219.52 198.18 224.38 194.39C239.87 182.39 243.45 160.67 232.7 144.5C224 131.61 154.88 29.42 146.3 16.54C135.17 0.12 112.77 -4.94 95.62 5.3C90.12 8.58 46.85 34.22 41.35 37.51C24.33 47.36 11.91 63.28 6.53 82.1C-12.92 152.2 1.67 273.21 182.4 451.57C326.14 593.43 433.14 631.58 506.74 631.58C523.63 631.7 540.53 629.56 556.78 625.13C575.86 619.83 591.98 607.58 601.97 590.78C605.29 585.47 631.28 542.65 634.6 537.34C644.97 520.29 639.98 498.31 623.21 487.32C597.23 470.27 506.61 410.52 493.68 402.06C477.17 391.32 455.16 394.86 443 410.14ZM551.15 604.92C485.62 622.61 370.94 607.96 197.5 436.67C24.07 265.51 9.09 152.46 27.14 87.65C30.98 74.14 40.07 62.64 52.36 55.44C57.73 52.29 101.12 26.64 106.5 23.49C114.05 18.94 123.78 21.09 128.51 28.29C131.71 32.96 147.33 56.08 175.49 97.89C199.04 132.88 212.22 152.2 214.91 156.12C219.52 163.19 217.98 172.67 211.33 177.85C206.46 181.51 167.68 211.32 162.82 215.11C148.1 226.22 143.87 246.31 152.96 262.35C153.34 262.98 156.42 268.54 156.8 269.3C170.37 293.93 187.39 324.63 249.21 385.64C311.03 446.65 342.14 463.45 367.1 476.84C367.86 477.22 373.5 480.25 374.14 480.63C390.39 489.6 410.74 485.55 422.01 470.9C425.85 466.1 456.05 427.83 459.76 423.03C465.01 416.46 474.61 414.94 481.78 419.62C494.71 428.08 598.38 496.29 611.31 504.75C618.61 509.55 620.78 519.15 616.17 526.48C609.77 537.22 586.99 574.61 583.66 580.04C576.5 592.17 564.85 601.01 551.15 604.92Z" id="cjjWrwWz0"></path><path d="M490.61 294.81C496.5 294.81 501.23 290.01 501.23 284.2C501.23 208.67 439.16 147.53 362.62 147.4C356.73 147.4 351.99 152.2 351.99 158.01C351.99 163.82 356.73 168.5 362.62 168.5C427.38 168.5 479.86 220.29 479.99 284.2C479.99 290.01 484.72 294.81 490.61 294.81Z" id="b1iDdtpGcG"></path><path d="M426.61 294.81C432.5 294.81 437.24 290.01 437.24 284.2C437.24 243.53 403.83 210.69 362.62 210.56C356.73 210.56 351.99 215.23 351.99 221.05C351.99 226.98 356.73 231.66 362.62 231.66C392.05 231.66 415.99 255.15 415.99 284.2C415.99 290.01 420.73 294.81 426.61 294.81Z" id="c70lgyXYs"></path></defs><g><g><g><use xlink:href="#jlI9t4iWJ" opacity="1" fill="#000000" fill-opacity="1"></use><g><use xlink:href="#jlI9t4iWJ" opacity="1" fill-opacity="0" stroke="#000000" stroke-width="1" stroke-opacity="0"></use></g></g><g><use xlink:href="#cjjWrwWz0" opacity="1" fill="#000000" fill-opacity="1"></use><g><use xlink:href="#cjjWrwWz0" opacity="1" fill-opacity="0" stroke="#000000" stroke-width="1" stroke-opacity="0"></use></g></g><g><use xlink:href="#b1iDdtpGcG" opacity="1" fill="#000000" fill-opacity="1"></use><g><use xlink:href="#b1iDdtpGcG" opacity="1" fill-opacity="0" stroke="#000000" stroke-width="1" stroke-opacity="0"></use></g></g><g><use xlink:href="#c70lgyXYs" opacity="1" fill="#000000" fill-opacity="1"></use><g><use xlink:href="#c70lgyXYs" opacity="1" fill-opacity="0" stroke="#000000" stroke-width="1" stroke-opacity="0"></use></g></g></g></g></svg>